<mxfile host="drawio-plugin" modified="2022-02-21T07:28:33.847Z" agent="5.0 (X11; Linux x86_64) AppleWebKit/537.36 (KHTML, like Gecko) Chrome/89.0.4389.114 Safari/537.36" etag="WHncDA4sRUJ5iBXqMdDc" version="15.5.4" type="embed"><diagram id="23iRSUPoRavnBvh4doch" name="Page-1"><mxGraphModel dx="837" dy="776" grid="1" gridSize="10" guides="1" tooltips="1" connect="1" arrows="1" fold="1" page="1" pageScale="1" pageWidth="827" pageHeight="1169" math="0" shadow="0"><root><mxCell id="0"/><mxCell id="1" parent="0"/><mxCell id="39" value="&lt;b&gt;OAuth 2.0&lt;/b&gt;" style="rounded=1;whiteSpace=wrap;html=1;align=center;verticalAlign=top;fillColor=#f8cecc;strokeColor=#b85450;" vertex="1" parent="1"><mxGeometry x="30" y="680" width="560" height="210" as="geometry"/></mxCell><mxCell id="36" value="&lt;b&gt;Open ID Connect&lt;/b&gt;" style="rounded=1;whiteSpace=wrap;html=1;fillColor=#d5e8d4;strokeColor=#82b366;verticalAlign=top;align=center;" vertex="1" parent="1"><mxGeometry x="20" y="150" width="560" height="490" as="geometry"/></mxCell><mxCell id="16" value="302" style="edgeStyle=none;rounded=0;orthogonalLoop=1;jettySize=auto;html=1;" edge="1" parent="1" source="7" target="8"><mxGeometry relative="1" as="geometry"><Array as="points"><mxPoint x="330" y="220"/></Array></mxGeometry></mxCell><mxCell id="28" value="" style="edgeStyle=none;rounded=0;orthogonalLoop=1;jettySize=auto;html=1;" edge="1" parent="1" source="7" target="8"><mxGeometry relative="1" as="geometry"><Array as="points"><mxPoint x="330" y="420"/></Array></mxGeometry></mxCell><mxCell id="34" value="&lt;span style=&quot;font-size: 12px ; background-color: rgb(248 , 249 , 250)&quot;&gt;Authorization&amp;nbsp;&lt;/span&gt;&lt;b style=&quot;font-size: 12px ; background-color: rgb(248 , 249 , 250)&quot;&gt;CODE&lt;/b&gt;" style="edgeLabel;html=1;align=center;verticalAlign=middle;resizable=0;points=[];" vertex="1" connectable="0" parent="28"><mxGeometry x="-0.0591" relative="1" as="geometry"><mxPoint x="1" as="offset"/></mxGeometry></mxCell><mxCell id="7" value="Backend" style="shape=umlLifeline;perimeter=lifelinePerimeter;whiteSpace=wrap;html=1;container=1;collapsible=0;recursiveResize=0;outlineConnect=0;" vertex="1" parent="1"><mxGeometry x="200" y="100" width="210" height="810" as="geometry"/></mxCell><mxCell id="17" style="edgeStyle=none;rounded=0;orthogonalLoop=1;jettySize=auto;html=1;" edge="1" parent="1" source="8" target="14"><mxGeometry relative="1" as="geometry"><Array as="points"><mxPoint x="180" y="240"/></Array></mxGeometry></mxCell><mxCell id="19" value="302" style="edgeLabel;html=1;align=center;verticalAlign=middle;resizable=0;points=[];" vertex="1" connectable="0" parent="17"><mxGeometry x="-0.3796" y="-2" relative="1" as="geometry"><mxPoint x="1" as="offset"/></mxGeometry></mxCell><mxCell id="21" style="edgeStyle=none;rounded=0;orthogonalLoop=1;jettySize=auto;html=1;startArrow=none;" edge="1" parent="1" source="22" target="14"><mxGeometry relative="1" as="geometry"><Array as="points"/></mxGeometry></mxCell><mxCell id="30" style="edgeStyle=none;rounded=0;orthogonalLoop=1;jettySize=auto;html=1;" edge="1" parent="1" source="8" target="7"><mxGeometry relative="1" as="geometry"><mxPoint x="518.69" y="450" as="sourcePoint"/><mxPoint x="309.00034482758605" y="450" as="targetPoint"/><Array as="points"><mxPoint x="490" y="450"/></Array></mxGeometry></mxCell><mxCell id="31" value="ID Token, optional Access Token" style="edgeLabel;html=1;align=center;verticalAlign=middle;resizable=0;points=[];" vertex="1" connectable="0" parent="30"><mxGeometry x="0.0427" y="4" relative="1" as="geometry"><mxPoint x="1" as="offset"/></mxGeometry></mxCell><mxCell id="8" value="Keycloak" style="shape=umlLifeline;perimeter=lifelinePerimeter;whiteSpace=wrap;html=1;container=1;collapsible=0;recursiveResize=0;outlineConnect=0;" vertex="1" parent="1"><mxGeometry x="460" y="100" width="100" height="510" as="geometry"/></mxCell><mxCell id="15" style="edgeStyle=none;rounded=0;orthogonalLoop=1;jettySize=auto;html=1;" edge="1" parent="1" source="14" target="7"><mxGeometry relative="1" as="geometry"><Array as="points"><mxPoint x="170" y="190"/></Array></mxGeometry></mxCell><mxCell id="18" style="edgeStyle=none;rounded=0;orthogonalLoop=1;jettySize=auto;html=1;" edge="1" parent="1" source="14" target="8"><mxGeometry relative="1" as="geometry"><Array as="points"><mxPoint x="210" y="280"/></Array></mxGeometry></mxCell><mxCell id="20" value="Username, Password, ..." style="edgeLabel;html=1;align=center;verticalAlign=middle;resizable=0;points=[];" vertex="1" connectable="0" parent="18"><mxGeometry x="-0.1944" y="-1" relative="1" as="geometry"><mxPoint x="20" as="offset"/></mxGeometry></mxCell><mxCell id="26" style="edgeStyle=none;rounded=0;orthogonalLoop=1;jettySize=auto;html=1;" edge="1" parent="1" source="14" target="7"><mxGeometry relative="1" as="geometry"><Array as="points"><mxPoint x="270" y="380"/></Array></mxGeometry></mxCell><mxCell id="27" value="&lt;meta charset=&quot;utf-8&quot;&gt;&lt;span style=&quot;color: rgb(0, 0, 0); font-family: helvetica; font-size: 12px; font-style: normal; font-weight: 400; letter-spacing: normal; text-align: center; text-indent: 0px; text-transform: none; word-spacing: 0px; background-color: rgb(248, 249, 250); display: inline; float: none;&quot;&gt;Authorization&lt;span&gt;&amp;nbsp;&lt;/span&gt;&lt;/span&gt;&lt;b style=&quot;color: rgb(0, 0, 0); font-family: helvetica; font-size: 12px; font-style: normal; letter-spacing: normal; text-align: center; text-indent: 0px; text-transform: none; word-spacing: 0px; background-color: rgb(248, 249, 250);&quot;&gt;CODE&lt;/b&gt;" style="edgeLabel;html=1;align=center;verticalAlign=middle;resizable=0;points=[];fontStyle=1" vertex="1" connectable="0" parent="26"><mxGeometry x="-0.0562" y="-3" relative="1" as="geometry"><mxPoint as="offset"/></mxGeometry></mxCell><mxCell id="14" value="User" style="shape=umlLifeline;perimeter=lifelinePerimeter;whiteSpace=wrap;html=1;container=1;collapsible=0;recursiveResize=0;outlineConnect=0;" vertex="1" parent="1"><mxGeometry x="40" y="100" width="100" height="510" as="geometry"/></mxCell><mxCell id="35" value="Spec:&amp;nbsp;&lt;span style=&quot;font-family: &amp;#34;verdana&amp;#34; , &amp;#34;charcoal&amp;#34; , &amp;#34;helvetica&amp;#34; , &amp;#34;arial&amp;#34; , sans-serif ; font-size: small ; background-color: rgb(255 , 255 , 255)&quot;&gt;In OpenID Connect, the session at the RP typically starts when the RP validates the End-User's ID Token.&amp;nbsp;&lt;/span&gt;" style="html=1;whiteSpace=wrap;" vertex="1" parent="1"><mxGeometry x="190" y="480" width="240" height="70" as="geometry"/></mxCell><mxCell id="22" value="302 Authorization &lt;b&gt;CODE&lt;/b&gt;" style="text;html=1;align=center;verticalAlign=middle;resizable=0;points=[];autosize=1;strokeColor=none;fillColor=none;" vertex="1" parent="1"><mxGeometry x="120" y="320" width="150" height="20" as="geometry"/></mxCell><mxCell id="40" value="" style="edgeStyle=none;rounded=0;orthogonalLoop=1;jettySize=auto;html=1;endArrow=none;" edge="1" parent="1" source="8" target="22"><mxGeometry relative="1" as="geometry"><mxPoint x="509.5" y="330" as="sourcePoint"/><mxPoint x="89.81034482758605" y="330" as="targetPoint"/><Array as="points"><mxPoint x="360" y="330"/></Array></mxGeometry></mxCell><mxCell id="43" value="Other Service" style="shape=umlLifeline;perimeter=lifelinePerimeter;whiteSpace=wrap;html=1;container=1;collapsible=0;recursiveResize=0;outlineConnect=0;align=center;verticalAlign=top;" vertex="1" parent="1"><mxGeometry x="660" y="100" width="100" height="830" as="geometry"/></mxCell><mxCell id="46" value="" style="endArrow=classic;html=1;rounded=0;" edge="1" parent="1" source="7"><mxGeometry width="50" height="50" relative="1" as="geometry"><mxPoint x="340" y="570" as="sourcePoint"/><mxPoint x="509.5000000000002" y="570" as="targetPoint"/><Array as="points"><mxPoint x="440" y="570"/></Array></mxGeometry></mxCell><mxCell id="47" value="Use Access Token on Userinfo Endpoint&lt;br&gt;to access additional Data (Provision / update the Account)&lt;br&gt;(aud: account)" style="edgeLabel;html=1;align=center;verticalAlign=middle;resizable=0;points=[];" vertex="1" connectable="0" parent="46"><mxGeometry x="-0.417" y="-1" relative="1" as="geometry"><mxPoint x="38" y="39" as="offset"/></mxGeometry></mxCell><mxCell id="49" value="Same dance as above to get access tokens to access different services" style="rounded=0;whiteSpace=wrap;html=1;align=center;verticalAlign=top;" vertex="1" parent="1"><mxGeometry x="400" y="720" width="160" height="50" as="geometry"/></mxCell><mxCell id="50" value="" style="shape=flexArrow;endArrow=classic;html=1;rounded=0;" edge="1" parent="1" source="7" target="43"><mxGeometry width="50" height="50" relative="1" as="geometry"><mxPoint x="420" y="600" as="sourcePoint"/><mxPoint x="470" y="550" as="targetPoint"/><Array as="points"><mxPoint x="330" y="800"/><mxPoint x="360" y="800"/><mxPoint x="610" y="810"/></Array></mxGeometry></mxCell></root></mxGraphModel></diagram></mxfile>